<?xml version="1.0" encoding="UTF-8"?>
<svg id="Capa_1" data-name="Capa 1" xmlns="http://www.w3.org/2000/svg" viewBox="0 0 412.96 429.57">
  <defs>
    <style>
      .cls-1 {
        fill: #ffb42e;
      }

      .cls-2 {
        fill: #541311;
      }
    </style>
  </defs>
  <path class="cls-2" d="M357.2,170.39l28.52-67.79c2.68-6.37,1.53-13.7-2.97-18.95-.46-.53-.95-1.03-1.45-1.51-.1-.1-.2-.21-.31-.31-.1-.1-.2-.21-.31-.31-.1-.1-.2-.21-.31-.31-.1-.1-.2-.21-.31-.31-.1-.1-.2-.21-.31-.31-.1-.1-.2-.21-.31-.31-.1-.1-.2-.21-.31-.31-.1-.1-.2-.21-.31-.31-.1-.1-.2-.21-.31-.31-.1-.1-.2-.21-.31-.31-.1-.1-.2-.21-.31-.31-.1-.1-.2-.21-.31-.31-.1-.1-.2-.21-.31-.31-.1-.1-.2-.21-.31-.31-.1-.1-.2-.21-.31-.31-.1-.1-.2-.21-.31-.31-.1-.1-.2-.21-.31-.31-.1-.1-.2-.21-.31-.31-.1-.1-.2-.21-.31-.31-.1-.1-.2-.21-.31-.31-.1-.1-.2-.21-.31-.31-.1-.1-.2-.21-.31-.31-.1-.1-.2-.21-.31-.31-.1-.1-.2-.21-.31-.31-.1-.1-.2-.21-.31-.31-.1-.1-.2-.21-.31-.31-.1-.1-.2-.21-.31-.31-.1-.1-.2-.21-.31-.31-.1-.1-.2-.21-.31-.31-.1-.1-.2-.21-.31-.31-.1-.1-.2-.21-.31-.31-.1-.1-.2-.21-.31-.31-.1-.1-.2-.21-.31-.31-.1-.1-.2-.21-.31-.31-.1-.1-.2-.21-.31-.31-.1-.1-.2-.21-.31-.31-.1-.1-.2-.21-.31-.31-.1-.1-.2-.21-.31-.31-.1-.1-.2-.21-.31-.31-.1-.1-.2-.21-.31-.31-.1-.1-.2-.21-.31-.31-.1-.1-.2-.21-.31-.31-.1-.1-.2-.21-.31-.31-.1-.1-.2-.21-.31-.31-.1-.1-.2-.21-.31-.31-.1-.1-.2-.21-.31-.31-.1-.1-.2-.21-.31-.31-.1-.1-.2-.21-.31-.31-.1-.1-.2-.21-.31-.31-.1-.1-.2-.21-.31-.31-.1-.1-.2-.21-.31-.31-.1-.1-.2-.21-.31-.31-.1-.1-.2-.21-.31-.31-.1-.1-.2-.21-.31-.31-.1-.1-.2-.21-.31-.31-.1-.1-.2-.21-.31-.31-.1-.1-.2-.21-.31-.31-.1-.1-.2-.21-.31-.31-.1-.1-.2-.21-.31-.31-.1-.1-.2-.21-.31-.31-.1-.1-.2-.21-.31-.31-.1-.1-.2-.21-.31-.31-.1-.1-.2-.21-.31-.31-.1-.1-.2-.21-.31-.31-.1-.1-.2-.21-.31-.31-.1-.1-.2-.21-.31-.31-.1-.1-.2-.21-.31-.31-.1-.1-.2-.21-.31-.31-.1-.1-.2-.21-.31-.31-.1-.1-.2-.21-.31-.31-.1-.1-.2-.21-.31-.31-.1-.1-.2-.21-.31-.31-.1-.1-.2-.21-.31-.31-.1-.1-.2-.21-.31-.31-.1-.1-.2-.21-.31-.31-.1-.1-.2-.21-.31-.31-.1-.1-.2-.21-.31-.31-.1-.1-.2-.21-.31-.31-.1-.1-.2-.21-.31-.31-.1-.1-.2-.21-.31-.31-.1-.1-.2-.21-.31-.31-.1-.1-.2-.21-.31-.31-.1-.1-.2-.21-.31-.31-.1-.1-.2-.21-.31-.31-.1-.1-.2-.21-.31-.31-.1-.1-.2-.21-.31-.31-.1-.1-.2-.21-.31-.31-.1-.1-.2-.21-.31-.31-.1-.1-.2-.21-.31-.31-.1-.1-.2-.21-.31-.31-.1-.1-.2-.21-.31-.31-.1-.1-.2-.21-.31-.31-.1-.1-.2-.21-.31-.31-.1-.1-.2-.21-.31-.31-.1-.1-.2-.21-.31-.31-.1-.1-.2-.21-.31-.31-.1-.1-.2-.21-.31-.31-.1-.1-.2-.21-.31-.31-.1-.1-.2-.21-.31-.31-.1-.1-.2-.21-.31-.31-3.43-3.33-7.99-5.17-12.7-5.17-1.47,0-2.96.18-4.43.55l-72.03,18.02c-1.72.43-3.33,1.11-4.82,1.99-.03-.03-.05-.05-.08-.08-.1-.1-.21-.21-.31-.31-.1-.1-.21-.2-.31-.31-.1-.1-.21-.21-.31-.31-.1-.1-.21-.21-.31-.31-.1-.11-.21-.21-.31-.31-.1-.1-.21-.2-.31-.31-.1-.1-.21-.21-.31-.31-.1-.1-.21-.2-.31-.31-.1-.1-.21-.21-.31-.31-.1-.1-.21-.2-.31-.31-.1-.1-.21-.21-.31-.31-.1-.1-.21-.21-.31-.31-.1-.1-.21-.2-.31-.31-.1-.11-.21-.21-.31-.31-.1-.1-.21-.2-.31-.31-.1-.1-.21-.21-.31-.31-.1-.1-.21-.21-.31-.31-.1-.11-.21-.21-.31-.31-.1-.1-.21-.2-.31-.31-.1-.1-.21-.21-.31-.31-.1-.1-.21-.2-.31-.31-.1-.1-.21-.21-.31-.31-.1-.1-.21-.21-.31-.31-.1-.1-.21-.2-.31-.31-.1-.1-.21-.21-.31-.31-.1-.1-.21-.2-.31-.31-.1-.11-.21-.21-.31-.31-.1-.1-.21-.2-.31-.31-.1-.1-.21-.21-.31-.31-.1-.1-.21-.21-.31-.31-.1-.11-.21-.21-.31-.31-.1-.1-.21-.2-.31-.31-.1-.1-.21-.21-.31-.31-18.13-18.48-43.11-29.44-68.66-29.44-6.3,0-12.61.65-18.77,1.95-17.35,3.63-32.67,11.64-47.49,19.38-9.46,4.94-18.4,9.61-27.12,12.73-1.24.44-2.59.67-4.01.67-.75,0-1.5-.07-2.25-.19-.04-.04-.08-.08-.12-.12-.1-.11-.21-.2-.31-.31-.1-.11-.21-.2-.31-.31-.1-.11-.21-.2-.31-.31-.1-.11-.21-.2-.31-.31-.1-.11-.21-.2-.31-.31-.1-.11-.21-.2-.31-.31-.1-.11-.21-.2-.31-.31-.1-.11-.21-.2-.31-.31-.1-.11-.21-.2-.31-.31-.1-.11-.21-.2-.31-.31-.1-.11-.21-.2-.31-.31-.1-.11-.21-.2-.31-.31-.1-.11-.21-.2-.31-.31-.1-.11-.21-.2-.31-.31-.1-.11-.21-.2-.31-.31-.1-.11-.21-.2-.31-.31-.1-.11-.21-.2-.31-.31-.1-.11-.21-.2-.31-.31-.1-.11-.21-.2-.31-.31-.1-.11-.21-.2-.31-.31-.1-.11-.21-.2-.31-.31-.1-.11-.21-.2-.31-.31-.1-.11-.21-.2-.31-.31-.1-.11-.21-.2-.31-.31-.1-.11-.21-.2-.31-.31-.1-.11-.21-.2-.31-.31-.1-.11-.21-.2-.31-.31-.1-.11-.21-.2-.31-.31-.1-.11-.21-.2-.31-.31-.1-.11-.21-.2-.31-.31-.1-.11-.21-.2-.31-.31-.1-.11-.21-.2-.31-.31-.1-.11-.21-.2-.31-.31-.1-.11-.21-.2-.31-.31-.1-.11-.21-.2-.31-.31-.1-.11-.21-.2-.31-.31-.1-.11-.21-.2-.31-.31-.1-.11-.21-.2-.31-.31-.1-.11-.21-.2-.31-.31-.1-.11-.21-.2-.31-.31-.1-.11-.21-.2-.31-.31-.1-.11-.21-.2-.31-.31-.1-.11-.21-.2-.31-.31-.1-.11-.21-.2-.31-.31-.1-.11-.21-.2-.31-.31-.1-.11-.21-.2-.31-.31-.1-.11-.21-.2-.31-.31-.1-.11-.21-.2-.31-.31-.1-.11-.21-.2-.31-.31-.1-.11-.21-.2-.31-.31-.1-.11-.21-.2-.31-.31-.1-.11-.21-.2-.31-.31-.1-.11-.21-.2-.31-.31-.1-.11-.21-.2-.31-.31-1.69-1.86-3.76-3.38-6.11-4.42-2.42-1.07-4.98-1.62-7.62-1.62-6.01,0-16.62,2.58-20.1,19.87-.65,3.23-1.13,6.95-1.22,8.68-.78,15.53,4.76,29.52,15.71,40.03.1.1.2.21.31.31.1.1.2.21.31.31.1.1.2.21.31.31.11.1.2.21.31.31.1.1.2.21.31.31.1.1.2.21.31.31.1.1.2.21.31.31.11.1.2.21.31.31.1.1.2.21.31.31.1.1.2.21.31.31.1.1.2.21.31.31.1.1.2.21.31.31.1.1.2.21.31.31.1.1.2.21.31.31.1.1.2.21.31.31.1.1.2.21.31.31.1.1.2.21.31.31.1.1.2.21.31.31.1.1.2.21.31.31.1.1.2.21.31.31.1.1.2.21.31.31.1.1.2.21.31.31.1.1.2.21.31.31.1.1.2.21.31.31.1.1.2.21.31.31.1.1.2.21.31.31.1.1.2.21.31.31.1.1.2.21.31.31.1.1.2.21.31.31.11.1.2.21.31.31,0,0,.01.01.02.02l22.17,96.91c.36,1.58.92,3.07,1.66,4.47l-9.71,7.85c-5.46,4.41-7.9,11.57-6.27,18.4.82,3.47,2.63,6.53,5.09,8.91.1.1.2.21.31.31.1.1.2.21.31.31.1.1.2.21.31.31.1.1.2.21.31.31.1.1.2.21.31.31.1.1.2.21.31.31.1.1.2.21.31.31.1.1.2.21.31.31.1.1.2.21.31.31.1.1.2.21.31.31.1.1.2.21.31.31.1.1.2.21.31.31.1.1.2.21.31.31.1.1.2.21.31.31.1.1.2.21.31.31.1.1.2.21.31.31.1.1.2.21.31.31.1.1.2.21.31.31.1.1.2.21.31.31.1.1.2.21.31.31.1.1.2.21.31.31.1.1.2.21.31.31.1.1.2.21.31.31.1.1.2.21.31.31.1.1.2.21.31.31.1.1.2.21.31.31.1.1.2.21.31.31.1.1.2.21.31.31.1.1.2.21.31.31.1.1.2.21.31.31.1.1.2.21.31.31.1.1.2.21.31.31.1.1.2.21.31.31.1.1.2.21.31.31.1.1.2.21.31.31.1.1.2.21.31.31.1.1.2.21.31.31.1.1.2.21.31.31.1.1.2.21.31.31.1.1.2.21.31.31.1.1.2.21.31.31.1.1.2.21.31.31.1.1.2.21.31.31.1.1.2.21.31.31.1.1.2.21.31.31.1.1.2.21.31.31.1.1.2.21.31.31.1.1.2.21.31.31.1.1.2.21.31.31.1.1.2.21.31.31.1.1.2.21.31.31.1.1.2.21.31.31.1.1.2.21.31.31.1.1.2.21.31.31.1.1.2.21.31.31.1.1.2.21.31.31.1.1.2.21.31.31.1.1.2.21.31.31.1.1.2.21.31.31.1.1.2.21.31.31.1.1.2.21.31.31.1.1.2.21.31.31.1.1.2.21.31.31.1.1.2.21.31.31.1.1.2.21.31.31.1.1.2.21.31.31.1.1.2.21.31.31.1.1.2.21.31.31.1.1.2.21.31.31.1.1.2.21.31.31.1.1.2.21.31.31.1.1.2.21.31.31.1.1.2.21.31.31.1.1.2.21.31.31.1.1.2.21.31.31.1.1.2.21.31.31.1.1.2.21.31.31.1.1.2.21.31.31.1.1.2.21.31.31.1.1.2.21.31.31.1.1.2.21.31.31.1.1.2.21.31.31.1.1.2.21.31.31.1.1.2.21.31.31.1.1.2.21.31.31.1.1.2.21.31.31.1.1.2.21.31.31.1.1.2.21.31.31.1.1.2.21.31.31.1.1.2.21.31.31.1.1.2.21.31.31.1.1.2.21.31.31.1.1.2.21.31.31.1.1.2.21.31.31.1.1.2.21.31.31.1.1.2.21.31.31.1.1.2.21.31.31.1.1.2.21.31.31.1.1.2.21.31.31.1.1.2.21.31.31,1.16,1.17,2.48,2.18,3.92,3.01v.97c.08,4.85,2.08,9.41,5.46,12.74.1.1.21.21.31.31.1.1.21.21.31.31.1.1.2.21.31.31.1.1.21.21.31.31.1.1.21.21.31.31.1.1.21.21.31.31.1.1.2.21.31.31.1.1.21.21.31.31.1.1.21.21.31.31.1.11.21.21.31.31.1.1.21.21.31.31.1.1.2.21.31.31.1.1.21.21.31.31.1.1.21.21.31.31.1.1.21.21.31.31.1.1.2.21.31.31.1.1.21.21.31.31.1.1.21.21.31.31.1.1.21.21.31.31.1.1.2.21.31.31.1.1.21.21.31.31.1.1.21.21.31.31.1.1.21.21.31.31.1.11.21.21.31.31.1.1.2.21.31.31.1.1.21.21.31.31.1.1.21.21.31.31.1.1.21.21.31.31.1.1.2.21.31.31.1.1.21.21.31.31.1.1.21.21.31.31.1.1.21.21.31.31.1.1.21.21.31.31.1.1.2.21.31.31.1.1.21.21.31.31.1.1.21.21.31.31.1.11.21.21.31.31.1.1.2.21.31.31.1.1.21.21.31.31.1.1.21.21.31.31.1.1.21.21.31.31.1.1.2.21.31.31.1.1.21.21.31.31.1.1.21.21.31.31.1.1.21.21.31.31.1.11.21.21.31.31.1.1.2.21.31.31.1.1.21.21.31.31.1.1.21.21.31.31.1.11.21.21.31.31.1.1.2.21.31.31.1.1.21.21.31.31.1.1.21.21.31.31.1.1.21.21.31.31.1.1.2.21.31.31.1.1.21.21.31.31.1.1.21.21.31.31.1.1.21.21.31.31.1.11.21.21.31.31.1.1.2.21.31.31.1.1.21.21.31.31.1.1.21.21.31.31.1.11.21.21.31.31.1.1.2.21.31.31.1.1.21.21.31.31.1.1.21.21.31.31.1.1.21.21.31.31.1.1.21.21.31.31.1.1.2.21.31.31.1.1.21.21.31.31.1.1.21.21.31.31.1.11.21.21.31.31.1.1.2.21.31.31.1.1.21.21.31.31.1.1.21.21.31.31.1.11.21.21.31.31.1.1.2.21.31.31.1.1.21.21.31.31.1.1.21.21.31.31.1.1.21.21.31.31.1.1.21.21.31.31.1.1.2.21.31.31.1.1.21.21.31.31.1.1.21.21.31.31.1.11.21.21.31.31.1.1.2.21.31.31.1.1.21.21.31.31.1.1.21.21.31.31.1.1.21.21.31.31.1.1.21.21.31.31.1.1.2.21.31.31.1.1.21.21.31.31.1.1.21.21.31.31.1.1.21.21.31.31.1.1.2.21.31.31.1.1.21.21.31.31.1.1.21.21.31.31.1.11.21.21.31.31.1.1.2.21.31.31.1.1.21.21.31.31,1.12,1.15,2.39,2.17,3.81,3.01,2.86,1.69,6.07,2.54,9.29,2.54,2.93,0,5.87-.71,8.54-2.12l3.56-1.89c1.09-.58,2.12-1.26,3.07-2.05l6.77-5.59c1.36,1.19,2.92,2.18,4.63,2.94l96.13,42.38s.02.02.04.04c.1.11.21.2.31.31.1.11.21.2.31.31.1.11.21.2.31.31.1.11.21.2.31.31.1.11.21.2.31.31.1.11.21.2.31.31.1.11.21.2.31.31.1.11.21.2.31.31.1.11.21.2.31.31.1.11.21.2.31.31.1.11.21.2.31.31.1.11.21.2.31.31.1.11.21.2.31.31.1.11.21.2.31.31.1.11.21.2.31.31.1.11.21.2.31.31.1.11.21.2.31.31.1.11.21.2.31.31.1.11.21.2.31.31.1.11.21.2.31.31.1.11.21.2.31.31.1.11.21.2.31.31.1.11.21.2.31.31.1.11.21.2.31.31.1.11.21.2.31.31.1.11.21.2.31.31.1.11.21.2.31.31.1.11.21.2.31.31.1.11.21.2.31.31.1.11.21.2.31.31.1.11.21.2.31.31.1.11.21.2.31.31.1.11.21.2.31.31.1.11.21.2.31.31.1.11.21.2.31.31.1.11.21.2.31.31.1.11.21.2.31.31.1.11.21.2.31.31.1.11.21.2.31.31.1.11.21.2.31.31.1.11.21.2.31.31.1.11.21.2.31.31.1.11.21.2.31.31.1.11.21.2.31.31.1.11.21.2.31.31.1.11.21.2.31.31.1.11.21.2.31.31.1.11.21.2.31.31.1.11.21.2.31.31.1.11.21.2.31.31.1.11.21.2.31.31.1.11.21.2.31.31,9.6,10.18,22.97,15.82,38.27,15.82,3.63,0,7.36-.32,11.1-.96,7.25-1.24,13.05-6.72,14.71-13.89,1.45-6.32-.57-12.86-5.16-17.26-.1-.1-.2-.21-.31-.31-.1-.1-.2-.21-.31-.31-.1-.1-.2-.21-.31-.31-.1-.1-.2-.21-.31-.31-.1-.1-.2-.21-.31-.31-.1-.1-.2-.21-.31-.31-.1-.1-.2-.21-.31-.31-.1-.1-.2-.21-.31-.31-.1-.1-.2-.21-.31-.31-.1-.1-.2-.21-.31-.31-.1-.1-.2-.21-.31-.31-.1-.1-.2-.21-.31-.31-.1-.1-.2-.21-.31-.31-.1-.1-.2-.21-.31-.31-.1-.1-.2-.21-.31-.31-.1-.1-.2-.21-.31-.31-.1-.1-.2-.21-.31-.31-.1-.1-.2-.21-.31-.31-.1-.1-.2-.21-.31-.31-.1-.1-.2-.21-.31-.31-.1-.1-.2-.21-.31-.31-.1-.1-.2-.21-.31-.31-.1-.1-.2-.21-.31-.31-.1-.1-.2-.21-.31-.31-.1-.1-.2-.21-.31-.31-.1-.1-.2-.21-.31-.31-.1-.1-.2-.21-.31-.31-.1-.1-.2-.21-.31-.31-.1-.1-.2-.21-.31-.31-.1-.1-.2-.21-.31-.31-.1-.1-.2-.21-.31-.31-.1-.1-.2-.21-.31-.31-.1-.1-.2-.21-.31-.31-.1-.1-.2-.21-.31-.31-.1-.1-.2-.21-.31-.31-.1-.1-.2-.21-.31-.31-.1-.1-.2-.21-.31-.31-.1-.1-.2-.21-.31-.31-.1-.1-.2-.21-.31-.31-.1-.1-.2-.21-.31-.31-.1-.1-.2-.21-.31-.31-.1-.1-.2-.21-.31-.31-.1-.1-.2-.21-.31-.31-.1-.1-.2-.21-.31-.31-.1-.1-.2-.21-.31-.31-.1-.1-.2-.21-.31-.31-.07-.08-.14-.15-.22-.23-1.48-4.15-.26-7.63,2.75-12.41,3.55-5.64,7.68-11.35,12.04-17.41,13.37-18.55,28.53-39.57,31.44-65.5,2.94-26.29-5.31-53.29-22.63-74.07l-.17-.2c-1.21-1.45-2.75-3.29-4.64-5.17-.1-.1-.2-.2-.31-.31-.1-.1-.21-.21-.31-.31-.1-.1-.2-.2-.31-.31-.1-.1-.2-.21-.31-.31-.1-.1-.2-.2-.31-.31-.06-.06-.12-.13-.18-.19.6-.32,1.19-.66,1.77-1.04,3.05-1.99,5.44-4.85,6.85-8.21Z"/>
  <path class="cls-1" d="M47.42,56.78c5.61,16.89,25.82,27.34,42.76,21.28,23.96-8.57,46.84-26.11,72.21-31.43,31.19-6.53,62.95,7.98,80.35,34.37l-7.99,36.03,9.84,12.18,43.38-33.79c-.27-1.17-1.01-1.52-1.82-2.16-1.72-1.39-20.98-9.91-20.53-10.98l72.03-18.02-28.52,67.79c-1.59,1.04-1.06-.06-1.41-1.08-2.23-6.43-3.65-13.42-5.73-19.92l-1.66-1.12-42.63,35.43,9.9,12.8c2.77,1.52,26.02.14,31.39.73,4.45.49,8.03,4.88,10.86,8.27,14.07,16.88,20.96,38.55,18.52,60.36-3.2,28.6-25.92,51.64-40.78,75.21-9.91,15.71-7.72,28.76,4.67,42.72l9.85,7.06c-15.73,2.68-30.63-2.22-38.41-16.99-.97-1.84-.67-5.12-2.92-6.66l-109.87-48.43c.07-1.02.71-1.28,1.29-1.85,2.04-2.01,10.02-8.71,12.25-10.05,1.17-.7,2.28-1.39,3.72-1l94.02,41.11c1.37-3.33,1.38-6.54,3.18-9.82,12.98-23.67,41.5-49.03,43.13-76.68.9-15.19-4.39-32.04-15.79-42.39l-34.78-.91-16.71-19.33-1.8.51-75.22,61.26-.33,28.65-43.32,35.75-3.56,1.89-.34-23.99,29.39-24.48-1.26-14.2c-.8-1.08-13.22-4.29-14.76-3.69l-29.25,23.81-24.26-5.25,48.11-38.94,27.14,5.64,76.09-62.61-.28-2.34-15.3-18.75,8.31-34.48c-.06-2.68-7.98-9-10.49-10.82-39-28.24-76.27,7.3-112.79,20.98-3.48,1.3-6.86,1.19-10.29,2.32l20.93,93.51c-.24,2.8-14.32,12.06-17.07,14.9l-24.42-106.77c-2.53-2.53-5.87-3.39-8.83-5.65-9.42-7.17-14.09-17.01-13.5-28.84.05-1.05,1.36-12.05,3.32-11.18Z"/>
</svg>