<?xml version="1.0" encoding="UTF-8"?>
<svg id="Capa_1" data-name="Capa 1" xmlns="http://www.w3.org/2000/svg" viewBox="0 0 759.63 347.46">
  <defs>
    <style>
      .cls-1 {
        fill: #ffb42e;
      }

      .cls-2 {
        fill: #541311;
      }
    </style>
  </defs>
  <g>
    <g>
      <path class="cls-2" d="M419.13,108.19h-17.79l-3.72-16.55h-19.17l-3.72,16.55h-17.79l22.2-88.81h17.79l22.2,88.81ZM393.89,74.95l-5.93-25.92-5.79,25.92h11.72Z"/>
      <path class="cls-2" d="M486.28,108.19h-18.62l-10.62-29.92h-11.86v29.92h-17.79V19.38h44.4l11.03,11.17v35.44l-8.41,8.55,11.86,33.65ZM465.18,36.07h-20v25.51h20v-25.51Z"/>
      <path class="cls-2" d="M532.34,46v-9.93h-20v55.43h20v-9.93h17.65v15.44l-11.03,11.17h-33.23l-11.17-11.17V30.55l11.17-11.17h33.23l11.03,11.17v15.44h-17.65Z"/>
      <path class="cls-2" d="M410.72,201.09v16.69h-48.26v-88.81h17.79v72.12h30.47Z"/>
      <path class="cls-2" d="M478.56,217.78h-17.79l-3.72-16.55h-19.17l-3.72,16.55h-17.79l22.2-88.81h17.79l22.2,88.81ZM453.33,184.54l-5.93-25.92-5.79,25.92h11.72Z"/>
      <path class="cls-2" d="M542.27,166.76l-6.62,6.62,6.62,6.62v26.61l-11.03,11.17h-44.4v-88.81h44.4l11.03,11.17v26.61ZM524.62,145.66h-20v19.44h20v-19.44ZM524.62,181.65h-20v19.44h20v-19.44Z"/>
      <path class="cls-2" d="M592.6,155.59v-9.93h-20v16.82l37.65,9.51v34.61l-11.03,11.17h-33.23l-11.17-11.17v-15.44h17.79v9.93h20v-16.82l-37.78-9.52v-34.61l11.17-11.17h33.23l11.03,11.17v15.44h-17.65Z"/>
      <path class="cls-2" d="M399.55,265.18v-9.93h-20v16.82l37.65,9.51v34.61l-11.03,11.17h-33.23l-11.17-11.17v-15.44h17.79v9.93h20v-16.82l-37.78-9.52v-34.61l11.17-11.17h33.23l11.03,11.17v15.44h-17.65Z"/>
      <path class="cls-2" d="M483.11,238.56v16.69l-18.75-.14v72.26h-17.79v-72.12h-18.89v-16.69h55.43Z"/>
      <path class="cls-2" d="M549.03,238.56v77.64l-11.03,11.17h-33.23l-11.17-11.17v-77.64h17.79v72.26l20-.14v-72.12h17.65Z"/>
      <path class="cls-2" d="M617.7,249.73v66.47l-11.03,11.17h-44.4v-88.81h44.4l11.03,11.17ZM600.05,255.25h-20v55.43h20v-55.43Z"/>
      <path class="cls-2" d="M630.93,327.37v-88.81h17.79v88.81h-17.79Z"/>
      <path class="cls-2" d="M717.26,249.73v66.47l-11.03,11.17h-33.23l-11.17-11.17v-66.47l11.17-11.17h33.23l11.03,11.17ZM699.6,255.25h-20v55.43h20v-55.43Z"/>
    </g>
    <g>
      <path class="cls-2" d="M69.79,314.23l.46-2.45-2.07-5.82h-3.29v5.82l.92,2.45h-6.74l.92-2.45v-19.61l-.92-2.45h13.18l3.07,3.06v9.81l-2.34,2.34,2.41,6.86,1.46,2.45h-7.05ZM70.4,301.36v-7.05h-6.74l1.23.92v6.13h5.52Z"/>
      <path class="cls-2" d="M86.7,322.69h-38.44v-41.71h38.44v41.71ZM52.51,318.43h29.93v-33.2h-29.93v33.2Z"/>
    </g>
  </g>
  <g>
    <path class="cls-2" d="M305.8,143.4l22.67-53.89c2.13-5.06,1.22-10.89-2.36-15.06-.36-.42-.75-.82-1.16-1.2-.08-.08-.16-.17-.25-.25-.08-.08-.16-.17-.25-.25-.08-.08-.16-.17-.25-.25-.08-.08-.16-.17-.25-.25-.08-.08-.16-.17-.25-.25-.08-.08-.16-.17-.25-.25-.08-.08-.16-.17-.25-.25-.08-.08-.16-.17-.25-.25-.08-.08-.16-.17-.25-.25-.08-.08-.16-.17-.25-.25-.08-.08-.16-.17-.25-.25-.08-.08-.16-.17-.25-.25-.08-.08-.16-.17-.25-.25-.08-.08-.16-.17-.25-.25-.08-.08-.16-.17-.25-.25-.08-.08-.16-.17-.25-.25-.08-.08-.16-.17-.25-.25-.08-.08-.16-.17-.25-.25-.08-.08-.16-.17-.25-.25-.08-.08-.16-.17-.25-.25-.08-.08-.16-.17-.25-.25-.08-.08-.16-.17-.25-.25-.08-.08-.16-.17-.25-.25-.08-.08-.16-.17-.25-.25-.08-.08-.16-.17-.25-.25-.08-.08-.16-.17-.25-.25-.08-.08-.16-.17-.25-.25-.08-.08-.16-.17-.25-.25-.08-.08-.16-.17-.25-.25-.08-.08-.16-.17-.25-.25-.08-.08-.16-.17-.25-.25-.08-.08-.16-.17-.25-.25-.08-.08-.16-.17-.25-.25-.08-.08-.16-.17-.25-.25-.08-.08-.16-.17-.25-.25-.08-.08-.16-.17-.25-.25-.08-.08-.16-.17-.25-.25-.08-.08-.16-.17-.25-.25-.08-.08-.16-.17-.25-.25-.08-.08-.16-.17-.25-.25-.08-.08-.16-.17-.25-.25-.08-.08-.16-.17-.25-.25-.08-.08-.16-.17-.25-.25-.08-.08-.16-.17-.25-.25-.08-.08-.16-.17-.25-.25-.08-.08-.16-.17-.25-.25-.08-.08-.16-.17-.25-.25-.08-.08-.16-.17-.25-.25-.08-.08-.16-.17-.25-.25-.08-.08-.16-.17-.25-.25-.08-.08-.16-.17-.25-.25-.08-.08-.16-.17-.25-.25-.08-.08-.16-.17-.25-.25-.08-.08-.16-.17-.25-.25-.08-.08-.16-.17-.25-.25-.08-.08-.16-.17-.25-.25-.08-.08-.16-.17-.25-.25-.08-.08-.16-.17-.25-.25-.08-.08-.16-.17-.25-.25-.08-.08-.16-.17-.25-.25-.08-.08-.16-.17-.25-.25-.08-.08-.16-.17-.25-.25-.08-.08-.16-.17-.25-.25-.08-.08-.16-.17-.25-.25-.08-.08-.16-.17-.25-.25-.08-.08-.16-.17-.25-.25-.08-.08-.16-.17-.25-.25-.08-.08-.16-.17-.25-.25-.08-.08-.16-.17-.25-.25-.08-.08-.16-.17-.25-.25-.08-.08-.16-.17-.25-.25-.08-.08-.16-.17-.25-.25-.08-.08-.16-.17-.25-.25-.08-.08-.16-.17-.25-.25-.08-.08-.16-.17-.25-.25-.08-.08-.16-.17-.25-.25-.08-.08-.16-.17-.25-.25-.08-.08-.16-.17-.25-.25-.08-.08-.16-.17-.25-.25-.08-.08-.16-.17-.25-.25-.08-.08-.16-.17-.25-.25-.08-.08-.16-.17-.25-.25-.08-.08-.16-.17-.25-.25-.08-.08-.16-.17-.25-.25-.08-.08-.16-.17-.25-.25-.08-.08-.16-.17-.25-.25-.08-.08-.16-.17-.25-.25-.08-.08-.16-.17-.25-.25-.08-.08-.16-.17-.25-.25-.08-.08-.16-.17-.25-.25-.08-.08-.16-.17-.25-.25-.08-.08-.16-.17-.25-.25-.08-.08-.16-.17-.25-.25-.08-.08-.16-.17-.25-.25-.08-.08-.16-.17-.25-.25-.08-.08-.16-.17-.25-.25-.08-.08-.16-.17-.25-.25-.08-.08-.16-.17-.25-.25-.08-.08-.16-.17-.25-.25-.08-.08-.16-.17-.25-.25-2.72-2.65-6.35-4.11-10.09-4.11-1.17,0-2.35.14-3.52.43l-57.25,14.33c-1.36.34-2.65.88-3.83,1.58-.02-.02-.04-.04-.06-.06-.08-.08-.17-.16-.25-.25-.08-.08-.16-.16-.25-.24-.08-.08-.16-.16-.25-.25-.08-.08-.16-.16-.24-.25-.08-.08-.17-.17-.25-.25-.08-.08-.16-.16-.24-.24-.08-.08-.16-.16-.25-.25-.08-.08-.16-.16-.24-.25-.08-.08-.17-.17-.25-.25-.08-.08-.16-.16-.24-.24-.08-.08-.16-.16-.25-.25-.08-.08-.16-.16-.25-.25-.08-.08-.16-.16-.25-.24-.08-.08-.17-.17-.25-.25-.08-.08-.16-.16-.24-.24-.08-.08-.16-.16-.25-.25-.08-.08-.16-.16-.24-.25-.08-.08-.17-.17-.25-.25-.08-.08-.16-.16-.24-.24-.08-.08-.16-.16-.25-.25-.08-.08-.16-.16-.24-.25-.08-.08-.17-.16-.25-.25-.08-.08-.17-.16-.25-.25-.08-.08-.16-.16-.24-.24-.08-.08-.16-.16-.25-.25-.08-.08-.16-.16-.24-.24-.08-.08-.17-.17-.25-.25-.08-.08-.16-.16-.25-.24-.08-.08-.16-.16-.25-.25-.08-.08-.16-.16-.24-.25-.08-.08-.17-.17-.25-.25-.08-.08-.16-.16-.24-.24-.08-.08-.16-.16-.25-.25-14.41-14.69-34.27-23.4-54.58-23.4-5,0-10.03.52-14.92,1.55-13.79,2.89-25.97,9.25-37.75,15.4-7.52,3.93-14.62,7.64-21.56,10.12-.99.35-2.06.53-3.19.53-.6,0-1.19-.06-1.79-.15-.03-.03-.06-.06-.09-.09-.08-.09-.17-.16-.25-.25-.08-.09-.17-.16-.25-.25-.08-.09-.17-.16-.25-.25-.08-.09-.17-.16-.25-.25-.08-.09-.17-.16-.25-.25-.08-.09-.17-.16-.25-.25-.08-.09-.17-.16-.25-.25-.08-.09-.17-.16-.25-.25-.08-.09-.17-.16-.25-.25-.08-.09-.17-.16-.25-.25-.08-.09-.17-.16-.25-.25-.08-.09-.17-.16-.25-.25-.08-.09-.17-.16-.25-.25-.08-.09-.17-.16-.25-.25-.08-.09-.17-.16-.25-.25-.08-.09-.17-.16-.25-.25-.08-.09-.17-.16-.25-.25-.08-.09-.17-.16-.25-.25-.08-.09-.17-.16-.25-.25-.08-.09-.17-.16-.25-.25-.08-.09-.17-.16-.25-.25-.08-.09-.17-.16-.25-.25-.08-.09-.17-.16-.25-.25-.08-.09-.17-.16-.25-.25-.08-.09-.17-.16-.25-.25-.08-.09-.17-.16-.25-.25-.08-.09-.17-.16-.25-.25-.08-.09-.17-.16-.25-.25-.08-.09-.17-.16-.25-.25-.08-.09-.17-.16-.25-.25-.08-.09-.17-.16-.25-.25-.08-.09-.17-.16-.25-.25-.08-.09-.17-.16-.25-.25-.08-.09-.17-.16-.25-.25-.08-.09-.17-.16-.25-.25-.08-.09-.17-.16-.25-.25-.08-.09-.17-.16-.25-.25-.08-.09-.17-.16-.25-.25-.08-.09-.17-.16-.25-.25-.08-.09-.17-.16-.25-.25-.08-.09-.17-.16-.25-.25-.08-.09-.17-.16-.25-.25-.08-.09-.17-.16-.25-.25-.08-.09-.17-.16-.25-.25-.08-.09-.17-.16-.25-.25-.08-.09-.17-.16-.25-.25-.08-.09-.17-.16-.25-.25-.08-.09-.17-.16-.25-.25-.08-.09-.17-.16-.25-.25-.08-.09-.17-.16-.25-.25-.08-.09-.17-.16-.25-.25-.08-.09-.17-.16-.25-.25-.08-.09-.17-.16-.25-.25-.08-.09-.17-.16-.25-.25-1.34-1.48-2.99-2.69-4.86-3.52-1.92-.85-3.96-1.29-6.06-1.29-4.78,0-13.21,2.05-15.98,15.8-.52,2.57-.9,5.52-.97,6.9-.62,12.34,3.78,23.46,12.49,31.82.08.08.16.17.25.25.08.08.16.17.25.25.08.08.16.16.24.24.08.08.16.17.25.25.08.08.16.17.25.25.08.08.16.17.25.25.08.08.16.16.24.24.08.08.16.17.25.25.08.08.16.17.25.25.08.08.16.17.25.25.08.08.16.17.25.25.08.08.16.16.25.25.08.08.16.17.25.25.08.08.16.17.25.25.08.08.16.17.25.25.08.08.16.16.24.24.08.08.16.17.25.25.08.08.16.17.25.25.08.08.16.17.25.25.08.08.16.16.25.24.08.08.16.17.25.25.08.08.16.17.25.25.08.08.16.17.25.25.08.08.16.17.25.25.08.08.16.16.24.25.08.08.16.17.25.25.08.08.16.17.25.25.08.08.16.17.25.25.08.08.16.16.24.24.08.08.16.17.25.25,0,0,0,.01.01.02l17.62,77.03c.29,1.25.73,2.44,1.32,3.55l-7.72,6.24c-4.34,3.51-6.28,9.2-4.98,14.62.66,2.76,2.09,5.19,4.05,7.08.08.08.16.17.25.25.08.08.16.17.25.25.08.08.16.16.25.25.08.08.16.17.25.25.08.08.16.17.25.25.08.08.16.17.25.25.08.08.16.16.24.25.08.08.16.17.25.25.08.08.16.17.25.25.08.08.16.17.25.25.08.08.16.17.25.25.08.08.16.17.25.25.08.08.16.17.25.25.08.08.16.17.25.25.08.08.16.17.25.25.08.08.16.16.25.25.08.08.16.17.25.25.08.08.16.17.25.25.08.08.16.17.25.25.08.08.16.16.25.25.08.08.16.17.25.25.08.08.16.17.25.25.08.08.16.17.25.25.08.08.16.17.25.25.08.08.16.16.25.25.08.08.16.17.25.25.08.08.16.17.25.25.08.08.16.17.25.25.08.08.16.16.25.25.08.08.16.17.25.25.08.08.16.17.25.25.08.08.16.17.25.25.08.08.16.17.25.25.08.08.16.17.25.25.08.08.16.17.25.25.08.08.16.17.25.25.08.08.16.17.25.25.08.08.16.16.25.25.08.08.16.17.25.25.08.08.16.17.25.25.08.08.16.17.25.25.08.08.16.16.25.25.08.08.16.17.25.25.08.08.16.17.25.25.08.08.16.17.25.25.08.08.16.17.25.25.08.08.16.17.25.25.08.08.16.17.25.25.08.08.16.17.25.25.08.08.16.17.25.25.08.08.16.16.25.25.08.08.16.17.25.25.08.08.16.17.25.25.08.08.16.17.25.25.08.08.16.16.25.25.08.08.16.17.25.25.08.08.16.17.25.25.08.08.16.17.25.25.08.08.16.17.25.25.08.08.16.17.24.25.08.08.16.17.25.25.08.08.16.17.25.25.08.08.16.17.25.25.08.08.16.16.25.25.08.08.16.17.25.25.08.08.16.17.25.25.08.08.16.17.25.25.08.08.16.17.25.25.08.08.16.16.25.25.08.08.16.17.25.25.08.08.16.17.25.25.08.08.16.17.25.25.08.08.16.17.25.25.08.08.16.17.25.25.08.08.16.17.25.25.08.08.16.17.25.25.08.08.16.16.25.25.08.08.16.17.25.25.08.08.16.17.25.25.08.08.16.17.25.25.08.08.16.17.25.25.08.08.16.16.24.25.08.08.16.17.25.25.08.08.16.17.25.25.08.08.16.17.25.25.08.08.16.17.24.25.08.08.16.17.25.25.08.08.16.17.25.25.08.08.16.17.25.25.08.08.16.17.25.25.08.08.16.16.25.25.08.08.16.17.25.25.08.08.16.17.25.25.08.08.16.17.25.25.08.08.16.16.25.25.08.08.16.17.25.25.08.08.16.17.25.25.08.08.16.17.25.25.08.08.16.17.25.25.08.08.16.17.25.25.92.93,1.97,1.74,3.12,2.39v.77c.07,3.86,1.66,7.48,4.34,10.12.08.08.16.16.25.25.08.08.16.16.25.25.08.08.16.16.24.25.08.08.16.16.25.25.08.08.16.16.25.25.08.08.16.16.25.25.08.08.16.16.25.25.08.08.16.16.25.25.08.08.16.16.25.25.08.08.16.16.25.25.08.08.16.16.25.25.08.08.16.16.25.25.08.08.16.16.25.25.08.08.16.16.25.25.08.08.16.16.25.25.08.08.16.16.24.25.08.08.16.16.25.25.08.08.16.16.25.25.08.08.16.16.25.25.08.08.16.16.24.25.08.08.16.16.25.25.08.08.16.16.25.25.08.08.16.16.25.25.08.08.16.16.25.25.08.08.16.16.24.24.08.08.16.16.25.25.08.08.16.16.25.25.08.08.16.16.25.25.08.08.16.16.24.25.08.08.16.16.25.25.08.08.16.16.25.25.08.08.16.16.25.25.08.08.16.16.25.25.08.08.16.16.25.25.08.08.16.16.25.25.08.08.16.16.25.25.08.08.16.16.25.25.08.08.16.16.25.24.08.08.16.16.25.25.08.08.16.16.25.25.08.08.16.16.25.25.08.08.16.16.24.25.08.08.16.16.25.25.08.08.16.16.25.25.08.08.16.16.25.25.08.08.16.16.25.25.08.08.16.16.25.25.08.08.16.16.25.25.08.08.16.16.25.25.08.08.16.16.25.25.08.08.16.16.24.24.08.08.16.16.25.25.08.08.16.16.25.25.08.08.16.16.25.25.08.08.16.16.24.25.08.08.16.16.25.25.08.08.16.16.25.25.08.08.16.16.25.25.08.08.16.16.25.25.08.08.16.16.25.25.08.08.16.16.25.25.08.08.16.16.25.25.08.08.16.16.25.25.08.08.16.16.25.24.08.08.16.16.25.25.08.08.16.16.25.25.08.08.16.16.25.25.08.08.16.16.25.25.08.08.16.16.24.25.08.08.16.16.25.25.08.08.16.16.25.25.08.08.16.16.25.25.08.08.16.16.25.25.08.08.16.16.25.25.08.08.16.16.25.25.08.08.16.16.25.25.08.08.16.16.24.24.08.08.16.16.25.25.08.08.16.16.25.25.08.08.16.16.25.25.08.08.16.16.25.25.08.08.16.16.25.25.08.08.16.16.25.25.08.08.16.16.25.25.08.08.16.16.25.25.08.08.16.16.25.25.08.08.16.16.25.25.08.08.16.16.25.25.08.08.16.16.25.25.08.08.16.16.25.25.08.08.16.16.24.25.08.08.16.16.25.25.08.08.16.16.25.25.08.08.16.16.25.25.08.08.16.16.24.25.08.08.16.16.25.25.08.08.16.16.25.25.08.08.16.16.25.25.08.08.16.16.25.25.08.08.16.16.25.25.89.92,1.9,1.73,3.03,2.39,2.27,1.35,4.83,2.02,7.39,2.02,2.33,0,4.66-.56,6.79-1.69l2.83-1.5c.87-.46,1.68-1,2.44-1.63l5.38-4.44c1.08.94,2.32,1.74,3.68,2.34l76.42,33.69s.02.02.03.03c.08.08.17.16.25.25.08.08.17.16.25.25.08.08.16.16.25.25.08.08.17.16.25.25.08.08.17.16.25.25.08.08.17.16.25.25.08.08.16.16.25.25.08.08.17.16.25.25.08.08.17.16.25.25.08.08.17.16.25.25.08.08.17.16.25.25.08.08.17.16.25.24.08.08.17.16.25.25.08.08.17.16.25.25.08.08.17.16.25.25.08.08.17.16.25.25.08.08.17.16.25.25.08.08.17.16.25.25.08.08.17.16.25.25.08.08.17.16.25.25.08.08.17.16.25.25.08.08.17.16.25.25.08.08.17.16.25.25.08.08.17.16.25.25.08.08.17.16.25.24.08.08.17.16.25.25.08.08.17.16.25.25.08.08.17.16.25.25.08.08.16.16.25.25.08.08.17.16.25.25.08.08.17.16.25.25.08.08.17.16.25.25.08.08.17.16.25.25.08.08.16.16.25.25.08.08.17.16.25.25.08.08.17.16.25.25.08.08.17.16.25.25.08.08.17.16.25.24.08.08.17.16.25.25.08.08.17.16.25.25.08.08.17.16.25.25.08.08.17.16.25.25.08.08.16.16.25.25.08.08.17.16.25.25.08.08.17.16.25.25.08.08.17.16.25.25.08.08.17.16.25.25.08.08.17.16.25.25.08.08.17.16.25.25.08.08.17.16.25.25.08.08.17.16.25.24.08.08.17.16.25.25,7.63,8.09,18.26,12.57,30.42,12.57,2.89,0,5.85-.26,8.82-.76,5.77-.99,10.38-5.34,11.69-11.04,1.16-5.02-.45-10.22-4.1-13.72-.08-.08-.16-.17-.25-.25-.08-.08-.16-.17-.25-.25-.08-.08-.16-.17-.25-.25-.08-.08-.16-.17-.25-.25-.08-.08-.16-.17-.25-.25-.08-.08-.16-.17-.25-.25-.08-.08-.16-.17-.25-.25-.08-.08-.16-.17-.25-.25-.08-.08-.16-.17-.25-.25-.08-.08-.16-.17-.25-.25-.08-.08-.16-.17-.25-.25-.08-.08-.16-.17-.25-.25-.08-.08-.16-.17-.25-.25-.08-.08-.16-.17-.25-.25-.08-.08-.16-.17-.25-.25-.08-.08-.16-.17-.25-.25-.08-.08-.16-.17-.25-.25-.08-.08-.16-.17-.25-.25-.08-.08-.16-.17-.25-.25-.08-.08-.16-.17-.25-.25-.08-.08-.16-.17-.25-.25-.08-.08-.16-.17-.25-.25-.08-.08-.16-.17-.25-.25-.08-.08-.16-.17-.25-.25-.08-.08-.16-.17-.25-.25-.08-.08-.16-.17-.25-.25-.08-.08-.16-.17-.25-.25-.08-.08-.16-.17-.25-.25-.08-.08-.16-.17-.25-.25-.08-.08-.16-.17-.25-.25-.08-.08-.16-.17-.25-.25-.08-.08-.16-.17-.25-.25-.08-.08-.16-.17-.25-.25-.08-.08-.16-.17-.25-.25-.08-.08-.16-.17-.25-.25-.08-.08-.16-.17-.25-.25-.08-.08-.16-.17-.25-.25-.08-.08-.16-.17-.25-.25-.08-.08-.16-.17-.25-.25-.08-.08-.16-.17-.25-.25-.08-.08-.16-.17-.25-.25-.08-.08-.16-.17-.25-.25-.08-.08-.16-.17-.25-.25-.08-.08-.16-.17-.25-.25-.08-.08-.16-.17-.25-.25-.08-.08-.16-.17-.25-.25-.06-.06-.11-.12-.17-.18-1.18-3.3-.21-6.07,2.19-9.87,2.82-4.48,6.1-9.02,9.57-13.84,10.63-14.74,22.68-31.45,24.99-52.07,2.34-20.9-4.22-42.36-17.99-58.88l-.14-.16c-.96-1.15-2.18-2.61-3.69-4.11-.08-.08-.16-.16-.25-.25-.08-.08-.16-.16-.25-.25-.08-.08-.16-.16-.25-.25-.08-.08-.16-.16-.25-.25-.08-.08-.16-.16-.25-.25-.05-.05-.09-.1-.14-.15.47-.25.94-.53,1.41-.83,2.43-1.58,4.32-3.85,5.45-6.52Z"/>
    <path class="cls-1" d="M59.55,53.1c4.46,13.43,20.53,21.73,33.99,16.92,19.05-6.81,37.23-20.76,57.4-24.98,24.79-5.19,50.04,6.34,63.87,27.32l-6.35,28.64,7.82,9.68,34.49-26.86c-.22-.93-.8-1.2-1.44-1.72-1.37-1.1-16.68-7.88-16.32-8.73l57.25-14.33-22.67,53.89c-1.27.83-.84-.05-1.12-.86-1.77-5.11-2.9-10.66-4.55-15.84l-1.32-.89-33.89,28.16,7.87,10.18c2.2,1.21,20.69.11,24.95.58,3.54.39,6.38,3.88,8.63,6.58,11.19,13.42,16.66,30.64,14.72,47.98-2.55,22.74-20.6,41.05-32.42,59.79-7.87,12.49-6.13,22.86,3.72,33.96l7.83,5.61c-12.5,2.13-24.34-1.77-30.53-13.5-.77-1.46-.53-4.07-2.32-5.29l-87.34-38.5c.05-.81.56-1.01,1.02-1.47,1.62-1.6,7.97-6.93,9.74-7.99.93-.56,1.81-1.1,2.96-.79l74.74,32.68c1.09-2.65,1.1-5.2,2.52-7.81,10.32-18.81,32.99-38.97,34.28-60.95.71-12.07-3.49-25.47-12.55-33.69l-27.64-.73-13.28-15.36-1.43.41-59.79,48.69-.26,22.78-34.44,28.42-2.83,1.5-.27-19.07,23.36-19.46-1-11.29c-.64-.86-10.51-3.41-11.74-2.93l-23.25,18.92-19.28-4.18,38.24-30.95,21.57,4.49,60.48-49.77-.22-1.86-12.16-14.9,6.61-27.4c-.04-2.13-6.34-7.16-8.34-8.6-31-22.45-60.62,5.8-89.66,16.68-2.77,1.04-5.45.95-8.18,1.84l16.64,74.33c-.19,2.23-11.38,9.59-13.57,11.85l-19.41-84.87c-2.01-2.01-4.67-2.7-7.02-4.49-7.48-5.7-11.2-13.52-10.73-22.92.04-.84,1.08-9.58,2.64-8.89Z"/>
  </g>
</svg>