<?xml version="1.0" encoding="UTF-8"?>
<svg id="Capa_1" data-name="Capa 1" xmlns="http://www.w3.org/2000/svg" viewBox="0 0 349.62 366.93">
  <defs>
    <style>
      .cls-1 {
        fill: #ffb42e;
      }
    </style>
  </defs>
  <path class="cls-1" d="M46.94,54.11c5.1,15.35,23.46,24.84,38.85,19.34,21.77-7.79,42.56-23.72,65.61-28.55,28.33-5.94,57.2,7.25,73,31.23l-7.26,32.74,8.94,11.07,39.42-30.7c-.25-1.06-.92-1.38-1.65-1.97-1.57-1.26-19.06-9.01-18.65-9.98l65.44-16.38-25.92,61.59c-1.45.94-.96-.06-1.28-.98-2.03-5.84-3.31-12.19-5.2-18.1l-1.5-1.01-38.74,32.19,9,11.63c2.51,1.38,23.65.13,28.52.66,4.05.44,7.3,4.43,9.87,7.52,12.79,15.34,19.04,35.03,16.82,54.84-2.91,25.99-23.55,46.92-37.05,68.34-9,14.28-7.01,26.13,4.25,38.82l8.95,6.41c-14.29,2.44-27.83-2.02-34.9-15.44-.88-1.67-.61-4.65-2.66-6.05l-99.83-44c.06-.93.64-1.16,1.17-1.68,1.85-1.83,9.11-7.92,11.13-9.13,1.06-.64,2.07-1.26,3.38-.91l85.43,37.36c1.24-3.02,1.25-5.95,2.89-8.92,11.79-21.5,37.7-44.55,39.19-69.67.81-13.8-3.99-29.11-14.35-38.51l-31.6-.83-15.18-17.56-1.64.47-68.34,55.66-.3,26.04-39.36,32.49-3.24,1.72-.31-21.8,26.7-22.24-1.14-12.9c-.73-.98-12.01-3.9-13.41-3.35l-26.57,21.63-22.04-4.77,43.71-35.38,24.66,5.13,69.13-56.88-.26-2.12-13.9-17.03,7.55-31.32c-.05-2.44-7.25-8.18-9.53-9.83-35.43-25.66-69.3,6.63-102.48,19.07-3.16,1.19-6.24,1.08-9.35,2.11l19.02,84.96c-.22,2.55-13.01,10.96-15.51,13.54l-22.19-97.01c-2.3-2.3-5.33-3.08-8.02-5.13-8.56-6.52-12.81-15.46-12.26-26.2.05-.96,1.24-10.95,3.02-10.16Z"/>
</svg>